<?xml version="1.0" encoding="UTF-8" standalone="no"?>
<svg
   viewBox="0 0 24 24"
   width="1em"
   height="1em"
   fill="#ff922b"
   version="1.1"
   id="svg1"
   sodipodi:docname="logo.svg"
   xml:space="preserve"
   inkscape:version="1.4.4 (dcaf3e7d9e, 2026-05-05)"
   xmlns:inkscape="http://www.inkscape.org/namespaces/inkscape"
   xmlns:sodipodi="http://sodipodi.sourceforge.net/DTD/sodipodi-0.dtd"
   xmlns="http://www.w3.org/2000/svg"
   xmlns:svg="http://www.w3.org/2000/svg"><defs
     id="defs1" /><sodipodi:namedview
     id="namedview1"
     pagecolor="#ffffff"
     bordercolor="#999999"
     borderopacity="1"
     inkscape:showpageshadow="2"
     inkscape:pageopacity="0"
     inkscape:pagecheckerboard="0"
     inkscape:deskcolor="#d1d1d1"
     inkscape:zoom="16.291667"
     inkscape:cx="12.030691"
     inkscape:cy="12"
     inkscape:window-width="1920"
     inkscape:window-height="992"
     inkscape:window-x="0"
     inkscape:window-y="0"
     inkscape:window-maximized="1"
     inkscape:current-layer="svg1" /><path
     fill-rule="evenodd"
/><g
     fill-rule="evenodd"
     id="g1"
     transform="matrix(0.10106036,0,0,0.10106036,-1.7439471,-0.53191468)"><path
       d="M 231.65,194.55 198.46,36.75 a 16,16 0 0 0 -19,-12.39 l -46.81,10.06 a 16.08,16.08 0 0 0 -12.3,19 l 33.19,157.8 a 16,16 0 0 0 15.62,12.78 16.25,16.25 0 0 0 3.38,-0.36 l 46.81,-10.06 a 16.09,16.09 0 0 0 12.3,-19.03 z M 136,50.15 c 0,-0.06 0,-0.09 0,-0.09 l 46.8,-10 3.33,15.87 -46.8,10.07 z m 6.62,31.47 46.82,-10.05 3.34,15.9 L 146,97.53 Z m 6.64,31.57 46.82,-10.06 13.3,63.24 -46.82,10.06 z m 66.74,84.75 -46.8,10 -3.33,-15.87 46.8,-10.07 3.33,15.85 c 0,0.06 0,0.09 0,0.09 z M 104,32 H 56 A 16,16 0 0 0 40,48 v 160 a 16,16 0 0 0 16,16 h 48 a 16,16 0 0 0 16,-16 V 48 A 16,16 0 0 0 104,32 Z M 56,48 h 48 V 64 H 56 Z m 0,32 h 48 v 96 H 56 Z m 48,128 H 56 v -16 h 48 z"
       id="path1-5" /></g></svg>
